<?xml version="1.0" encoding="UTF-8" standalone="no"?>
<!-- Created with Inkscape (http://www.inkscape.org/) -->

<svg
   width="297mm"
   height="210mm"
   viewBox="0 0 297 210"
   version="1.1"
   id="svg5"
   xmlns:inkscape="http://www.inkscape.org/namespaces/inkscape"
   xmlns:sodipodi="http://sodipodi.sourceforge.net/DTD/sodipodi-0.dtd"
   xmlns="http://www.w3.org/2000/svg"
   xmlns:svg="http://www.w3.org/2000/svg">
  <sodipodi:namedview
     id="namedview7"
     pagecolor="#ffffff"
     bordercolor="#000000"
     borderopacity="0.25"
     inkscape:showpageshadow="2"
     inkscape:pageopacity="0.0"
     inkscape:pagecheckerboard="0"
     inkscape:deskcolor="#d1d1d1"
     inkscape:document-units="mm"
     showgrid="false" />
  <defs
     id="defs2">
    <clipPath
       clipPathUnits="userSpaceOnUse"
       id="clipPath4767">
      <path
         id="path4769"
         style="fill:#ff0000;fill-opacity:1;fill-rule:nonzero;stroke:none;stroke-width:0.264583"
         d="m 38.992453,116.93446 v 63.42094 h 62.743977 v -25.04705 c -0.0232,0.081 -0.0465,0.16192 -0.0698,0.24288 -0.14584,0.50425 -0.24237,1.02052 -0.37155,1.5291 -0.14498,0.53252 -0.36268,1.0432 -0.6103,1.53531 -0.26586,0.47458 -0.54091,0.94526 -0.764295,1.44177 -0.166563,0.40424 -0.300569,0.81884 -0.417028,1.23972 -0.147289,0.46716 -0.343205,0.91785 -0.521415,1.37408 -0.240535,0.6015 -0.518615,1.18541 -0.840777,1.74718 -0.377264,0.59053 -0.730893,1.19526 -1.12241,1.77663 -0.355026,0.52574 -0.706083,1.05134 -1.101741,1.54771 -0.447733,0.53541 -0.886812,1.07842 -1.329637,1.61799 -0.495855,0.56992 -1.067258,1.06731 -1.639176,1.55856 -0.427463,0.36547 -0.858705,0.72599 -1.270206,1.1095 -0.381421,0.30799 -0.711901,0.66473 -1.037664,1.02887 -0.403598,0.43054 -0.814499,0.85044 -1.256771,1.24127 -0.41362,0.36586 -0.896593,0.63735 -1.360638,0.93224 -0.3936,0.24666 -0.834618,0.39923 -1.249019,0.60462 -0.08553,0.0436 -0.172707,0.0833 -0.259934,0.12299 0.04247,0.13101 0.08823,0.26095 0.136427,0.39016 0.1085,0.32343 0.200533,0.65137 0.307991,0.97461 0.51726,1.55597 -0.569968,2.35255 -1.380795,1.57458 -0.248107,-8e-4 -0.542927,-0.14457 -0.809254,-0.49661 -0.191688,-0.25337 -0.378254,-0.5107 -0.545185,-0.78134 -0.282932,-0.45602 -0.513942,-0.94303 -0.757576,-1.42059 -0.166542,-0.43037 -0.277932,-0.87795 -0.438735,-1.31051 -0.277119,-0.74552 0.04207,-1.21005 0.453721,-1.2051 0.281654,0.003 0.606737,0.22675 0.813387,0.73019 0.03032,0.0739 0.05531,0.14983 0.08113,0.22531 0.114168,-0.11759 0.255175,-0.23138 0.429432,-0.33693 0.109337,-0.0662 0.186706,-0.15727 0.260964,-0.262 0.203684,-0.27753 0.361511,-0.58743 0.561208,-0.86816 0.307295,-0.49591 0.66186,-0.95943 1.07642,-1.3715 0.416793,-0.46827 0.851384,-0.9165 1.338935,-1.31258 0.444566,-0.38985 0.884388,-0.78676 1.359606,-1.13946 0.373684,-0.30106 0.718135,-0.63455 1.059368,-0.97152 0.365538,-0.42143 0.700053,-0.86802 1.024226,-1.32188 0.435337,-0.59348 0.945536,-1.11399 1.526524,-1.56787 0.551087,-0.46965 1.077603,-0.96114 1.586465,-1.47639 0.566243,-0.55309 1.12508,-1.11691 1.636075,-1.72186 0.364678,-0.46146 0.672108,-0.95658 0.824241,-1.53066 0.220305,-0.64818 0.40427,-1.30492 0.56379,-1.97094 0.177739,-0.74291 0.275122,-1.4959 0.312642,-2.25929 0.06702,-0.79824 0.123891,-1.5985 0.239779,-2.39159 0.126455,-0.88145 0.255241,-1.76297 0.346231,-2.64893 0.07151,-0.79093 0.02323,-1.58433 0.0062,-2.37711 -0.03118,-0.90773 -0.06965,-1.81645 -0.189135,-2.71767 -0.116898,-0.83052 -0.255592,-1.65946 -0.451651,-2.4753 -0.242869,-0.8499 -0.51801,-1.69021 -0.743625,-2.54506 -0.232344,-0.89758 -0.52478,-1.77591 -0.882634,-2.63188 -0.328316,-0.83629 -0.697831,-1.6575 -0.966867,-2.51613 -0.217379,-0.6752 -0.436713,-1.34864 -0.759643,-1.98282 -0.236839,-0.60078 -0.453112,-1.20809 -0.658876,-1.82005 -0.224393,-0.60803 -0.463184,-1.21199 -0.631483,-1.83865 h -5.29e-4 c -0.03765,-0.14018 -0.06209,-0.27283 -0.07545,-0.39842 -0.626158,-0.64227 -1.225243,-1.30925 -1.789039,-2.00815 -0.109521,-0.12944 -0.377679,-0.45513 -0.515215,-0.58859 -0.309607,-0.30045 -0.674994,-0.54453 -1.024744,-0.79375 -0.707713,-0.46983 -1.427687,-0.92121 -2.158008,-1.35496 -1.060948,-0.61639 -2.157775,-1.16888 -3.277317,-1.67121 -0.936829,-0.38975 -1.862659,-0.81287 -2.838072,-1.1002 -0.740595,-0.24223 -1.502664,-0.45106 -2.162141,-0.8816 -0.521044,-0.32691 -1.026099,-0.6781 -1.547193,-1.0051 -0.444939,-0.27921 -0.693256,-0.60001 -0.792199,-0.90331 -0.638382,-0.0233 -1.277541,-0.0301 -1.916679,-0.0109 -0.959972,0.0247 -1.918571,0.0742 -2.875275,0.15917 -1.136721,0.0988 -2.272276,0.20873 -3.410646,0.28783 -1.120145,0.11738 -2.228323,0.30801 -3.343465,0.46251 -0.985041,0.0729 -1.970331,0.14817 -2.954343,0.23357 -0.287126,0.0249 -0.536729,0.004 -0.749824,-0.0491 -0.175898,0.98267 -1.254712,0.87013 -1.327052,-0.34055 -0.02,-0.3349 -0.130056,-0.64539 -0.260964,-0.95033 -0.11739,-0.20561 -0.05366,-0.0973 -0.192238,-0.32607 -0.444601,-0.73399 -0.126169,-1.2857 0.341066,-1.2852 0.01,1e-5 0.0204,0.002 0.03049,0.003 0.207526,-0.26526 0.589468,-0.48063 1.162204,-0.55035 0.8074,-0.0983 1.612008,-0.21757 2.414323,-0.3514 0.479872,-0.092 0.962443,-0.16498 1.446424,-0.22479 z m 36.24585,0 c 1.424056,0.1257 2.847721,0.2575 4.273124,0.36897 1.046885,0.085 2.097252,0.11596 3.143475,0.20826 1.025046,0.0908 1.85629,0.70044 2.689759,1.24695 0.808353,0.53146 1.624153,1.05112 2.434995,1.57872 0.454483,0.30996 0.950791,0.55695 1.395262,0.88211 0.323355,0.23656 0.375139,0.30254 0.669211,0.57878 0.567684,0.57419 0.973875,1.27047 1.360641,1.97197 0.115969,0.21505 0.234132,0.42879 0.351914,0.64286 0.159173,0.10863 0.309245,0.229 0.441836,0.36897 0.231346,0.2442 0.261503,0.32046 0.430979,0.59221 0.03883,0.07 0.07791,0.13984 0.11679,0.20981 0.728086,0.62522 1.428171,1.28309 2.1239,1.94406 0.720966,0.66746 1.441165,1.3354 2.152325,2.01332 0.773454,0.6855 1.42834,1.3993 2.04742,2.2257 0.74853,1.0308 1.199716,2.22601 1.644346,3.40858 0.41848,1.12126 0.66012,2.29184 0.81752,3.47472 0.11363,0.91352 0.15462,1.83398 0.18552,2.75332 0.006,0.60068 0.0284,1.19901 0.0744,1.79783 0.0414,0.19867 0.0923,0.39507 0.1447,0.59117 v -26.85831 z" />
    </clipPath>
  </defs>
  <g
     inkscape:groupmode="layer"
     id="layer5"
     inkscape:label="final">
    <path
       style="fill:none;fill-opacity:1;stroke:#495579;stroke-width:1.85208;stroke-linecap:round;stroke-linejoin:round;stroke-dasharray:none;stroke-opacity:1"
       d="m 208.2366,12.911087 -13.15031,37.226958 32.03031,10.825294 c 1.33703,2.204173 3.06372,2.45837 5.52334,1.663429 l 32.30915,10.579285 12.37661,-38.023847"
       id="path3433"
       sodipodi:nodetypes="cccccc" />
    <path
       style="fill:#495579;fill-opacity:1;stroke:#495579;stroke-width:2.53146;stroke-linecap:round;stroke-linejoin:round;stroke-dasharray:none;stroke-opacity:1"
       d="m 947.3068,255.1323 c -61.41012,-20.15751 -60.67387,-19.90999 -58.58511,-19.69556 38.84559,3.98783 74.33673,15.09105 107.13481,33.51658 2.92754,1.64465 4.04522,2.87092 2.53146,2.77741 -0.34808,-0.0215 -23.3346,-7.49079 -51.08116,-16.59843 z"
       id="path3512"
       transform="scale(0.26458333)" />
    <path
       style="fill:#495579;fill-opacity:1;stroke:#495579;stroke-width:2.53146;stroke-linecap:round;stroke-linejoin:round;stroke-dasharray:none;stroke-opacity:1"
       d="m 802.4134,207.6284 c -27.67901,-9.37528 -50.26804,-17.10442 -50.19786,-17.17585 0.16224,-0.16515 8.06651,0.86639 13.73056,1.79189 26.50968,4.33166 51.15821,12.21088 71.42321,22.83133 4.78962,2.51013 16.27364,9.23624 16.27364,9.53135 0,0.0825 -0.20342,0.13135 -0.45204,0.10861 -0.24863,-0.0227 -23.09851,-7.71204 -50.77751,-17.08733 z"
       id="path3514"
       transform="scale(0.26458333)" />
    <path
       id="path3337"
       style="fill:none;stroke:#495579;stroke-width:1.29646;stroke-linecap:round;stroke-linejoin:round;stroke-dasharray:none;stroke-opacity:1"
       d="m 196.53286,49.563788 c 14.28393,1.247819 24.94123,5.517831 33.10631,11.864689 12.16719,0.290026 23.87318,3.347224 35.01996,9.759667 l -1.14818,-2.679123 10.90787,-35.785438 2.48774,2.487756 c -4.4436,13.3946 -8.06478,24.32193 -12.05605,36.359536 m -52.43428,-59.706184 -3.63595,1.148196 -12.24742,36.168169 4.01868,-2.105025 z" />
    <path
       style="fill:none;stroke:#495579;stroke-width:1.24354;stroke-linecap:round;stroke-linejoin:round;stroke-dasharray:none;stroke-opacity:1"
       d="m 242.78737,25.611858 -11.09923,32.914946 c 12.90814,-2.443434 22.51972,2.530382 31.38402,9.185569 l 11.09922,-35.21134 c -8.34328,-4.838055 -17.96723,-8.139312 -31.38401,-6.889175 z"
       id="path3171"
       sodipodi:nodetypes="ccccc" />
    <path
       id="path3593"
       style="fill:none;fill-opacity:1;stroke:#495579;stroke-width:1.85208;stroke-linecap:round;stroke-linejoin:round;stroke-dasharray:none;stroke-opacity:1"
       d="m 212.78469,187.68354 16.84687,5.41265 m -15.42605,-8.86321 16.77921,5.34499 m -15.22307,-8.99853 16.71155,5.61562 m -15.96731,-9.2015 17.86173,5.68328 -5.14201,12.17846 -6.96879,2.97695 c 0.9387,0.0983 -5.29988,-1.80421 -7.64536,-2.43569 l -2.43568,-7.23941 z" />
    <path
       style="fill:none;fill-opacity:1;stroke:#495579;stroke-width:1.85208;stroke-linecap:round;stroke-linejoin:round;stroke-dasharray:none;stroke-opacity:1"
       d="m 216.50589,176.04635 c 0.90447,-9.02156 2.03977,-18.02449 2.42815,-27.08938 0.48113,-5.76948 0.93527,-11.70369 3.15067,-17.10967 1.91833,-4.71848 5.72165,-9.29157 11.11134,-9.77959 5.22575,-0.56342 10.30174,1.22979 15.28409,2.53245 4.4678,2.57697 9.91665,4.9868 11.69754,10.2441 1.93198,7.05091 -0.84928,14.45151 -4.94795,20.1901 -6.32978,9.49617 -14.34656,17.7588 -20.43974,27.41829"
       id="path3595"
       sodipodi:nodetypes="ccccssc" />
    <path
       style="fill:none;fill-opacity:1;stroke:#495579;stroke-width:1.05833;stroke-linecap:round;stroke-linejoin:round;stroke-dasharray:none;stroke-opacity:1"
       d="m 221.79317,178.35309 c 3.89111,-9.05799 7.78221,-18.11598 11.67332,-27.17397 0.40157,-2.4707 0.97526,-5.13804 -0.11602,-7.51721 -0.79788,-0.90768 -2.03953,-2.61443 -3.28585,-1.33535 -1.61983,0.93236 -1.47656,2.93364 -1.3651,4.53465 -0.0959,1.72831 0.26098,3.3597 1.01135,4.91284 0.6259,1.79126 2.02539,3.11887 3.44228,4.2981 1.21197,0.30441 2.51119,0.28862 3.75798,0.46522 1.29659,-1.54379 3.00865,-2.84217 3.5993,-4.84941 0.6501,-1.50918 1.3002,-3.01835 1.95031,-4.52752 -0.009,-1.90362 -2.27312,-4.03141 -4.11349,-2.84544 -1.96169,1.60849 -2.23933,4.4136 -2.27759,6.79391 0.007,2.07192 0.35621,4.1312 0.9039,6.12552 1.68232,1.5292 4.15006,0.26901 6.16297,0.63177 1.94945,0.34764 3.94199,-0.94168 5.4247,-2.12806 1.26709,-1.31005 2.19404,-3.04729 1.95636,-4.92095 0.4787,-2.06465 -1.14147,-4.47167 -3.41223,-3.60223 -2.12616,0.59571 -2.57305,3.04162 -3.7352,4.62576 -3.54765,6.02107 -6.44952,12.38917 -9.68624,18.57739 -1.69907,3.34667 -3.39815,6.69334 -5.09723,10.04001"
       id="path3597"
       sodipodi:nodetypes="cccccccccccccccscsccccc" />
    <path
       id="path3669"
       style="fill:none;fill-opacity:1;stroke:#495579;stroke-width:1.85208;stroke-linecap:round;stroke-linejoin:round;stroke-dasharray:none;stroke-opacity:1"
       d="m 63.327972,124.35557 c 14.276669,14.28219 17.962594,30.07733 19.756162,46.14282 M 59.539118,126.25 c -1.085725,22.56855 7.756593,34.52437 16.914524,46.14281 M 66.212629,123.62242 c 19.233965,5.86155 24.880386,21.44444 22.443878,42.73266 m -31.246713,-39.6708 c -14.85763,28.15012 -1.760067,38.26464 14.543815,46.31056 m -5.965181,-0.0464 26.249972,-11.43552 m -37.50773,6.50644 40.569586,-16.84021 M 48.989691,135.86984 78.460051,124.77062 M 45.208803,148.11727 88.793814,132.04253 M 47.841495,158.83376 94.917523,141.22809 M 96.065716,148.5 A 25.64304,25.260309 0 0 1 70.422676,173.76031 25.64304,25.260309 0 0 1 44.779636,148.5 25.64304,25.260309 0 0 1 70.422676,123.23969 25.64304,25.260309 0 0 1 96.065716,148.5 Z" />
    <path
       id="path3677"
       clip-path="url(#clipPath4767)"
       style="fill:none;stroke:#495579;stroke-width:1.99098;stroke-linecap:round;stroke-linejoin:round;stroke-dasharray:none;stroke-opacity:1"
       d="M 100.7411,148.64482 A 30.376692,30.714981 0 0 1 70.36441,179.3598 30.376692,30.714981 0 0 1 39.987719,148.64482 30.376692,30.714981 0 0 1 70.36441,117.92984 30.376692,30.714981 0 0 1 100.7411,148.64482 Z M 60.892282,124.6262 59.13317,120.4314" />
    <path
       id="path4775"
       style="fill:#495579;fill-opacity:1;stroke:#495579;stroke-width:1.85208;stroke-linecap:round;stroke-linejoin:round;stroke-dasharray:none;stroke-opacity:1"
       transform="rotate(-13.590445)"
       d="m 45.926879,190.59814 a 7.0026121,1.7929395 0 0 1 -7.002612,1.79294 7.0026121,1.7929395 0 0 1 -7.002612,-1.79294 7.0026121,1.7929395 0 0 1 7.002612,-1.79294 7.0026121,1.7929395 0 0 1 7.002612,1.79294 z m -7.937562,0.60316 -1.968787,8.09589 m 1.729381,-12.81237 1.35,4.78122" />
    <ellipse
       style="fill:none;fill-opacity:1;stroke:#495579;stroke-width:1.85208;stroke-linecap:round;stroke-linejoin:round;stroke-dasharray:none;stroke-opacity:1"
       id="path4783"
       cx="81.319809"
       cy="186.06213"
       rx="24.187767"
       ry="5.0405278" />
    <path
       style="fill:none;stroke:#495579;stroke-width:1.05833;stroke-linecap:round;stroke-linejoin:round;stroke-dasharray:none;stroke-opacity:1"
       d="m 219.47705,37.137473 11.14388,32.899856 c 8.77939,-9.773063 19.43769,-11.649759 30.5219,-11.736473 L 248.60586,23.575425 c -9.56767,1.215222 -19.22115,4.429067 -29.12881,13.562048 z"
       id="path3222"
       sodipodi:nodetypes="ccccc"
       transform="matrix(-1,0,0,1,461.61116,-11.366559)" />
  </g>
</svg>
